<svg width="19" height="19" viewBox="0 0 19 19" fill="none" xmlns="http://www.w3.org/2000/svg">
<path d="M9.49907 0C12.0178 0.00264713 14.4326 1.00439 16.2137 2.78541C17.9947 4.56643 18.9964 6.98126 18.9991 9.5C19.008 11.8472 18.1375 14.1127 16.5591 15.85L18.8491 18.15C18.9219 18.217 18.9718 18.3052 18.9915 18.4022C19.0113 18.4991 18.9999 18.5999 18.9591 18.69C18.9216 18.7813 18.8579 18.8595 18.776 18.9146C18.6941 18.9698 18.5978 18.9995 18.4991 19H9.49907C6.97951 19 4.56315 17.9991 2.78156 16.2175C0.99996 14.4359 -0.000930786 12.0196 -0.000930786 9.5C-0.000930786 6.98044 0.99996 4.56408 2.78156 2.78249C4.56315 1.00089 6.97951 0 9.49907 0ZM13.4991 11.5C13.6969 11.5 13.8902 11.4414 14.0546 11.3315C14.2191 11.2216 14.3473 11.0654 14.4229 10.8827C14.4986 10.7 14.5184 10.4989 14.4799 10.3049C14.4413 10.1109 14.346 9.93275 14.2062 9.79289C14.0663 9.65304 13.8881 9.5578 13.6942 9.51921C13.5002 9.48063 13.2991 9.50043 13.1164 9.57612C12.9337 9.65181 12.7775 9.77998 12.6676 9.94443C12.5577 10.1089 12.4991 10.3022 12.4991 10.5C12.4991 10.7652 12.6044 11.0196 12.792 11.2071C12.9795 11.3946 13.2339 11.5 13.4991 11.5ZM9.49907 11.5C9.69685 11.5 9.89019 11.4414 10.0546 11.3315C10.2191 11.2216 10.3473 11.0654 10.4229 10.8827C10.4986 10.7 10.5184 10.4989 10.4799 10.3049C10.4413 10.1109 10.346 9.93275 10.2062 9.79289C10.0663 9.65304 9.88814 9.5578 9.69416 9.51921C9.50018 9.48063 9.29911 9.50043 9.11639 9.57612C8.93366 9.65181 8.77748 9.77998 8.6676 9.94443C8.55772 10.1089 8.49907 10.3022 8.49907 10.5C8.49907 10.7652 8.60443 11.0196 8.79196 11.2071C8.9795 11.3946 9.23385 11.5 9.49907 11.5ZM5.49907 11.5C5.69685 11.5 5.89019 11.4414 6.05464 11.3315C6.21909 11.2216 6.34726 11.0654 6.42295 10.8827C6.49864 10.7 6.51844 10.4989 6.47986 10.3049C6.44127 10.1109 6.34603 9.93275 6.20618 9.79289C6.06632 9.65304 5.88814 9.5578 5.69416 9.51921C5.50018 9.48063 5.29911 9.50043 5.11639 9.57612C4.93366 9.65181 4.77748 9.77998 4.6676 9.94443C4.55772 10.1089 4.49907 10.3022 4.49907 10.5C4.49907 10.7652 4.60443 11.0196 4.79196 11.2071C4.9795 11.3946 5.23385 11.5 5.49907 11.5Z" fill="#8B8B8B"/>
</svg>
