<svg width="24" height="24" viewBox="0 0 24 24" fill="none" xmlns="http://www.w3.org/2000/svg">
<path d="M23.4946 11.9226L23.4917 11.9495V11.9766C23.4917 12.5927 23.0444 12.9813 22.6583 12.9813H21.325H20.8231L20.825 13.4832L20.8542 20.9859C20.8542 20.9862 20.8542 20.9866 20.8542 20.9869C20.8541 21.096 20.8472 21.2002 20.8358 21.3165L20.8333 21.341V21.3656V22.125C20.8333 22.9418 20.2576 23.5 19.6667 23.5H19.0583C19.0572 23.4997 19.0562 23.4995 19.0551 23.4992C19.0189 23.4899 18.9472 23.4743 18.8576 23.4817C18.78 23.4757 18.7157 23.4855 18.6765 23.4934C18.6652 23.4957 18.6548 23.498 18.6464 23.5H16.3333C15.7424 23.5 15.1667 22.9418 15.1667 22.125V18C15.1667 16.9512 14.4007 16 13.3333 16H10.6667C9.59929 16 8.83333 16.9512 8.83333 18V22.125C8.83333 22.9418 8.25762 23.5 7.66667 23.5H5.3375C5.29686 23.5 5.25306 23.497 5.1874 23.492L5.14533 23.4889L5.10332 23.4928C5.04934 23.4979 5.02268 23.5 5 23.5H4.33333C3.74272 23.5 3.16667 22.9417 3.16667 22.125V16.875C3.16667 16.8416 3.16768 16.8047 3.16954 16.7733L3.17042 16.7586V16.7438V13.4813V12.9813H2.67042H1.33542C0.915284 12.9813 0.5 12.6026 0.5 11.9766C0.5 11.6704 0.584897 11.4205 0.780284 11.1957L11.4501 0.732747L11.4625 0.720571L11.474 0.707561C11.5608 0.609707 11.6428 0.563832 11.7185 0.538231C11.8009 0.510361 11.8954 0.5 12.0167 0.5C12.2083 0.5 12.4084 0.56229 12.5511 0.691112L23.1817 11.207L23.1826 11.2079C23.4374 11.4588 23.5198 11.6906 23.4946 11.9226Z" fill="#1B1B1B" stroke="#1B1B1B"/>
</svg>
