<svg width="100" height="100" viewBox="0 0 100 100" fill="none" xmlns="http://www.w3.org/2000/svg">
<g clip-path="url(#clip0_4_501)">
<rect width="100" height="100" fill="white"/>
<path d="M68.5833 44.6329C68.5452 43.3574 68.1804 42.1129 67.5238 41.0187C66.8672 39.9244 65.9409 39.0169 64.8333 38.3829C64.5678 36.5682 63.657 34.9101 62.268 33.7124C60.879 32.5147 59.1049 31.8578 57.2708 31.8621C56.5675 31.8609 55.8671 31.952 55.1875 32.1329C53.7535 30.7639 51.8472 30 49.8646 30C47.882 30 45.9757 30.7639 44.5417 32.1329C43.8621 31.952 43.1616 31.8609 42.4583 31.8621C40.6171 31.8477 38.8329 32.5001 37.4352 33.6987C36.0375 34.8972 35.1207 36.5611 34.8542 38.3829C33.7427 39.0143 32.8122 39.9207 32.1519 41.0151C31.4916 42.1096 31.1236 43.3554 31.0833 44.6329C30.5308 44.6329 30.0009 44.8524 29.6102 45.2431C29.2195 45.6338 29 46.1637 29 46.7163C29.0001 50.3732 29.9628 53.9657 31.7913 57.1326C33.6198 60.2996 36.2497 62.9295 39.4167 64.7579V67.5496C39.4167 68.1021 39.6362 68.6321 40.0269 69.0228C40.4176 69.4135 40.9475 69.6329 41.5 69.6329H58.1667C58.7192 69.6329 59.2491 69.4135 59.6398 69.0228C60.0305 68.6321 60.25 68.1021 60.25 67.5496V64.7579C63.417 62.9295 66.0469 60.2996 67.8754 57.1326C69.7039 53.9657 70.6666 50.3732 70.6667 46.7163C70.6667 46.1637 70.4472 45.6338 70.0565 45.2431C69.6658 44.8524 69.1359 44.6329 68.5833 44.6329ZM35.25 44.6329C35.3029 43.9747 35.5514 43.3474 35.9634 42.8314C36.3755 42.3154 36.9323 41.9343 37.5625 41.7371L39.2917 41.1954L38.9583 39.4246C38.9638 38.9759 39.0575 38.5327 39.2343 38.1202C39.411 37.7078 39.6673 37.3342 39.9884 37.0208C40.3096 36.7074 40.6893 36.4603 41.106 36.2937C41.5226 36.127 41.968 36.0441 42.4167 36.0496C43.0183 36.0462 43.6118 36.1892 44.1458 36.4663L45.8333 37.4038L46.875 35.7996C47.2008 35.3141 47.641 34.9162 48.157 34.641C48.6729 34.3659 49.2486 34.222 49.8333 34.222C50.418 34.222 50.9938 34.3659 51.5097 34.641C52.0256 34.9162 52.4659 35.3141 52.7917 35.7996L53.8333 37.4038L55.5208 36.4663C56.0549 36.1892 56.6483 36.0462 57.25 36.0496C58.1511 36.0383 59.0206 36.3813 59.6713 37.0047C60.3221 37.6281 60.7019 38.4822 60.7292 39.3829L60.3958 41.1538L62.1042 41.7371C62.7344 41.9343 63.2912 42.3154 63.7033 42.8314C64.1153 43.3474 64.3637 43.9747 64.4167 44.6329H35.25Z" fill="#C99A71"/>
<path d="M35.25 44.6329C35.3029 43.9747 35.5514 43.3474 35.9634 42.8314C36.3755 42.3154 36.9323 41.9343 37.5625 41.7371L39.2917 41.1954L38.9583 39.4246C38.9638 38.9759 39.0575 38.5327 39.2343 38.1202C39.411 37.7078 39.6673 37.3342 39.9884 37.0208C40.3096 36.7074 40.6893 36.4603 41.106 36.2937C41.5226 36.127 41.968 36.0441 42.4167 36.0496C43.0183 36.0462 43.6118 36.1892 44.1458 36.4663L45.8333 37.4038L46.875 35.7996C47.2008 35.3141 47.641 34.9162 48.157 34.641C48.6729 34.3659 49.2486 34.222 49.8333 34.222C50.418 34.222 50.9938 34.3659 51.5097 34.641C52.0256 34.9162 52.4659 35.3141 52.7917 35.7996L53.8333 37.4038L55.5208 36.4663C56.0549 36.1892 56.6483 36.0462 57.25 36.0496C58.1511 36.0383 59.0206 36.3813 59.6713 37.0047C60.3221 37.6281 60.7019 38.4822 60.7292 39.3829L60.3958 41.1538L62.1042 41.7371C62.7344 41.9343 63.2912 42.3154 63.7033 42.8314C64.1153 43.3474 64.3637 43.9747 64.4167 44.6329H35.25Z" fill="#FFF1E4"/>
<path d="M57.2708 31.6621C56.5874 31.661 55.9066 31.7448 55.2442 31.9117C53.7827 30.5552 51.8613 29.8 49.8646 29.8C47.8679 29.8 45.9465 30.5552 44.485 31.9117C43.8227 31.7449 43.1422 31.661 42.4589 31.6621C40.5698 31.6476 38.7392 32.317 37.305 33.5468C35.8953 34.7557 34.9623 36.4258 34.671 38.2577C33.567 38.9035 32.6419 39.8158 31.9807 40.9118C31.3347 41.9825 30.9612 43.1943 30.8915 44.441C30.3562 44.4861 29.8515 44.7189 29.4688 45.1017C29.0406 45.5299 28.8 46.1107 28.8 46.7163C28.8001 50.4083 29.772 54.0353 31.6181 57.2326C33.4448 60.3966 36.0639 63.0296 39.2167 64.8731V67.5496C39.2167 68.1552 39.4572 68.736 39.8854 69.1642C40.3136 69.5924 40.8944 69.8329 41.5 69.8329H58.1667C58.7722 69.8329 59.353 69.5924 59.7812 69.1642C60.2094 68.736 60.45 68.1552 60.45 67.5496V64.8731C63.6028 63.0296 66.2218 60.3966 68.0486 57.2326C69.8947 54.0353 70.8666 50.4083 70.8667 46.7163C70.8667 46.1107 70.6261 45.5299 70.1979 45.1017C69.8152 44.719 69.3106 44.4862 68.7754 44.441C68.7079 43.1965 68.3375 41.9862 67.6953 40.9158C67.0378 39.8199 66.1167 38.9064 65.0166 38.2581C64.7264 36.4333 63.7995 34.7689 62.3986 33.5609C60.9733 32.3319 59.1528 31.6578 57.2708 31.6621ZM57.2708 31.6621C57.2709 31.6621 57.271 31.6621 57.2712 31.6621L57.2708 31.8621L57.2704 31.6621C57.2705 31.6621 57.2706 31.6621 57.2708 31.6621Z" stroke="#A5754B" stroke-width="0.4"/>
<path d="M36.344 54.288V51.08H38.112C38.692 51.08 39.064 51.38 39.064 51.924C39.064 52.248 38.82 52.528 38.512 52.644C38.872 52.732 39.14 52.984 39.14 53.44C39.14 54.052 38.768 54.288 38.188 54.288H36.344ZM37.224 52.588H37.636C38.056 52.588 38.184 52.296 38.184 51.924C38.184 51.548 38.056 51.264 37.636 51.264H37.224V52.588ZM37.224 54.104H37.708C38.132 54.104 38.256 53.888 38.256 53.44C38.256 52.988 38.132 52.772 37.708 52.772H37.224V54.104ZM41.1204 54.396C40.0644 54.396 39.4764 53.848 39.4764 52.676C39.4764 51.504 40.0644 50.956 41.1204 50.956C42.1764 50.956 42.7644 51.504 42.7644 52.676C42.7644 53.848 42.1764 54.396 41.1204 54.396ZM41.1204 54.212C41.5284 54.212 41.8804 53.908 41.8804 52.676C41.8804 51.444 41.5284 51.14 41.1204 51.14C40.7124 51.14 40.3564 51.444 40.3564 52.676C40.3564 53.908 40.7124 54.212 41.1204 54.212ZM43.2698 54.288V51.08H45.0378C45.6178 51.08 45.9898 51.38 45.9898 51.924C45.9898 52.248 45.7458 52.528 45.4378 52.644C45.7978 52.732 46.0658 52.984 46.0658 53.44C46.0658 54.052 45.6938 54.288 45.1138 54.288H43.2698ZM44.1498 52.588H44.5618C44.9818 52.588 45.1098 52.296 45.1098 51.924C45.1098 51.548 44.9818 51.264 44.5618 51.264H44.1498V52.588ZM44.1498 54.104H44.6338C45.0578 54.104 45.1818 53.888 45.1818 53.44C45.1818 52.988 45.0578 52.772 44.6338 52.772H44.1498V54.104ZM46.5862 54.288V51.08H47.3942L48.2502 53.568L49.1062 51.08H49.9142V54.288H49.1422V51.78L48.3702 53.996H48.1302L47.3582 51.78V54.288H46.5862ZM50.6018 51.08H51.4818V53.632C51.4818 54.048 51.6618 54.248 52.0978 54.248C52.5378 54.248 52.7138 54.048 52.7138 53.632V51.08H53.5938V53.448C53.5938 54.14 52.8738 54.396 52.0978 54.396C51.2498 54.396 50.6018 54.14 50.6018 53.448V51.08ZM54.1895 54.288V51.08H55.0695V52.524L56.3255 51.08H56.6935L55.4815 52.544L56.8775 54.288H56.2535L55.0695 52.8V54.288H54.1895ZM57.1609 54.288V53.94L58.8169 51.264H57.2569V51.08H59.6689V51.428L58.0169 54.104H59.7809V54.288H57.1609ZM60.1005 54.288L61.2045 51.08H62.2005L63.3045 54.288H62.3845L62.2605 53.892H61.1445L61.0205 54.288H60.1005ZM61.3245 53.304H62.0805L61.7045 52.092L61.3245 53.304ZM61.2005 53.708H62.2045L62.1365 53.488H61.2685L61.2005 53.708Z" fill="#543214"/>
</g>
<defs>
<clipPath id="clip0_4_501">
<rect width="100" height="100" fill="white"/>
</clipPath>
</defs>
</svg>
