<svg width="19" height="19" viewBox="0 0 19 19" fill="none" xmlns="http://www.w3.org/2000/svg">
<path d="M11.9993 8.14716C11.2633 8.60379 10.3934 8.85 9.5 8.85C8.3008 8.85 7.15953 8.4072 6.32517 7.63244C5.49244 6.85919 5.03462 5.82119 5.03462 4.75C5.03462 3.9503 5.28974 3.16412 5.77432 2.49069C6.25939 1.81658 6.95408 1.28429 7.77577 0.968247C8.59769 0.652112 9.50456 0.568781 10.3799 0.73046C11.2551 0.892121 12.053 1.29015 12.6748 1.86756C13.2961 2.4445 13.7132 3.17353 13.8815 3.95947C14.0498 4.74493 13.9639 5.55966 13.6324 6.30295C13.3005 7.04697 12.7348 7.69077 11.9993 8.14716ZM0.65 16.2857C0.65 14.8992 1.88337 13.7006 3.83159 12.8087C5.72559 11.9416 8.00832 11.5071 9.5 11.5071C10.9917 11.5071 13.2744 11.9416 15.1684 12.8087C17.1166 13.7006 18.35 14.8992 18.35 16.2857V18.35H0.65V16.2857Z" fill="#FAFAFA" stroke="#8B8B8B" stroke-width="1.3"/>
</svg>
