<svg width="216" height="29" viewBox="0 0 216 29" fill="none" xmlns="http://www.w3.org/2000/svg">
<path d="M0.0488751 27.304V1.64H14.1929C18.8329 1.64 21.8089 4.04 21.8089 8.392C21.8089 10.984 19.8569 13.224 17.3929 14.152C20.2729 14.856 22.4169 16.872 22.4169 20.52C22.4169 25.416 19.4409 27.304 14.8009 27.304H0.0488751ZM7.08888 13.704H10.3849C13.7449 13.704 14.7689 11.368 14.7689 8.392C14.7689 5.384 13.7449 3.112 10.3849 3.112H7.08888V13.704ZM7.08888 25.832H10.9609C14.3529 25.832 15.3449 24.104 15.3449 20.52C15.3449 16.904 14.3529 15.176 10.9609 15.176H7.08888V25.832ZM38.2601 28.168C29.8121 28.168 25.1081 23.784 25.1081 14.408C25.1081 5.032 29.8121 0.647999 38.2601 0.647999C46.7081 0.647999 51.4121 5.032 51.4121 14.408C51.4121 23.784 46.7081 28.168 38.2601 28.168ZM38.2601 26.696C41.5241 26.696 44.3401 24.264 44.3401 14.408C44.3401 4.552 41.5241 2.12 38.2601 2.12C34.9961 2.12 32.1481 4.552 32.1481 14.408C32.1481 24.264 34.9961 26.696 38.2601 26.696ZM55.4551 27.304V1.64H69.5991C74.2391 1.64 77.2151 4.04 77.2151 8.392C77.2151 10.984 75.2631 13.224 72.7991 14.152C75.6791 14.856 77.8231 16.872 77.8231 20.52C77.8231 25.416 74.8471 27.304 70.2071 27.304H55.4551ZM62.4951 13.704H65.7911C69.1511 13.704 70.1751 11.368 70.1751 8.392C70.1751 5.384 69.1511 3.112 65.7911 3.112H62.4951V13.704ZM62.4951 25.832H66.3671C69.7591 25.832 70.7511 24.104 70.7511 20.52C70.7511 16.904 69.7591 15.176 66.3671 15.176H62.4951V25.832ZM81.9864 27.304V1.64H88.4504L95.2984 21.544L102.146 1.64H108.61V27.304H102.434V7.24L96.2584 24.968H94.3384L88.1624 7.24V27.304H81.9864ZM114.111 1.64H121.151V22.056C121.151 25.384 122.591 26.984 126.079 26.984C129.599 26.984 131.007 25.384 131.007 22.056V1.64H138.047V20.584C138.047 26.12 132.287 28.168 126.079 28.168C119.295 28.168 114.111 26.12 114.111 20.584V1.64ZM142.813 27.304V1.64H149.853V13.192L159.901 1.64H162.845L153.149 13.352L164.317 27.304H159.325L149.853 15.4V27.304H142.813ZM166.584 27.304V24.52L179.832 3.112H167.352V1.64H186.648V4.424L173.432 25.832H187.544V27.304H166.584ZM190.101 27.304L198.933 1.64H206.901L215.733 27.304H208.373L207.381 24.136H198.453L197.461 27.304H190.101ZM199.893 19.432H205.941L202.933 9.736L199.893 19.432ZM198.901 22.664H206.933L206.389 20.904H199.445L198.901 22.664Z" fill="#C99A71"/>
</svg>
